<svg width="1293" height="99" viewBox="0 0 1293 99" fill="none" xmlns="http://www.w3.org/2000/svg">
<path d="M513.5 67H373.38C295.955 67 295.955 94 218.529 94C141.103 94 141.103 67 63.6773 67H0" stroke="#FF7E61" stroke-width="3" stroke-miterlimit="10"/>
<path d="M506.5 67H420.234C342.808 67 342.808 39 265.382 39C187.957 39 187.957 67 110.531 67H0" stroke="#6371DD" stroke-width="3" stroke-miterlimit="10"/>
<path d="M524.5 67H501.685C424.308 67 424.308 2 346.931 2C269.554 2 269.554 67 192.177 67H0" stroke="#6371DD" stroke-width="3" stroke-miterlimit="10"/>
<path d="M1278 67H1137.48C1049.25 67 1049.25 45 961.011 45C872.777 45 872.777 67 784.543 67" stroke="#6371DD" stroke-width="3" stroke-miterlimit="10"/>
<path d="M1293 67H1230.33C1142.05 67 1142.05 39 1053.77 39C965.494 39 965.494 67 877.215 67H760" stroke="#974B8C" stroke-width="3" stroke-miterlimit="10"/>
<rect x="561" y="30" width="170" height="69" rx="6" fill="#242931"/>
<path d="M593.706 79.0051V44.9749C593.706 44.8846 593.751 44.7943 593.841 44.7943L601.197 42.5377C601.332 42.4925 601.468 42.5828 601.468 42.7182V66.6387V79.0502C601.468 79.1856 601.377 79.2759 601.242 79.2759H593.932C593.796 79.2308 593.706 79.1405 593.706 79.0051Z" fill="white"/>
<path d="M645.42 39.0173C648.172 39.0173 650.293 41.1837 650.293 43.8466C650.293 46.5094 648.127 48.6307 645.42 48.6307C642.802 48.6307 640.636 46.4643 640.636 43.8466C640.591 41.1837 642.802 39.0173 645.42 39.0173Z" fill="#FF7E61"/>
<path d="M648.804 52.3315H641.764C641.539 52.3315 641.358 52.5121 641.358 52.7377V78.9148C641.358 79.1405 641.539 79.321 641.764 79.321H648.804C649.03 79.321 649.21 79.1405 649.21 78.9148V52.7377C649.21 52.5121 649.03 52.3315 648.804 52.3315Z" fill="white"/>
<path d="M608.733 52.4218L595.466 64.1564L609.59 79.4113C609.635 79.4564 609.635 79.4564 609.68 79.4564H619.292C619.563 79.4564 619.698 79.1405 619.518 78.96L607.063 64.7882L618.976 52.7829C619.157 52.6023 619.021 52.3315 618.796 52.3315H608.913C608.823 52.3315 608.778 52.3767 608.733 52.4218Z" fill="white"/>
<path d="M684.228 65.2847H676.286V89.2954C676.286 89.3857 676.376 89.4759 676.466 89.4308L684.002 87.0839C684.047 87.0839 684.092 86.9936 684.092 86.9485L684.228 65.2847Z" fill="white"/>
<path d="M689.643 79.1405C682.287 79.1405 676.286 73.1378 676.286 65.7811C676.286 58.4245 682.287 52.4669 689.643 52.4669C696.998 52.4669 703 58.4696 703 65.8263C703 73.1829 696.998 79.1405 689.643 79.1405ZM689.643 60.3652C686.665 60.3652 684.228 62.8024 684.228 65.7811C684.228 68.7599 686.665 71.1971 689.643 71.1971C692.621 71.1971 695.058 68.7599 695.058 65.7811C695.058 62.8024 692.666 60.3652 689.643 60.3652Z" fill="white"/>
<path d="M673.623 70.8812C673.488 65.9617 668.614 64.0661 665.004 62.7121C663.199 62.0351 661.304 61.313 661.213 60.5457C661.168 60.3652 661.168 59.8236 661.574 59.3271C662.026 58.8307 662.793 58.605 663.876 58.6502C665.906 58.7404 666.764 60.1395 667.08 60.9519L667.125 61.0422L667.215 61.1325C667.486 61.4033 667.937 61.4935 668.253 61.2679L672.991 58.4696C673.397 58.244 673.533 57.7475 673.307 57.3413C671.502 54.1369 667.937 52.3315 663.47 52.3315C660.852 52.3315 658.416 53.1439 656.565 54.5882C654.58 56.1227 653.497 58.2891 653.497 60.6811C653.497 63.9758 655.302 66.413 658.867 67.9927C659.499 68.2635 660.401 68.4891 661.394 68.7148C663.379 69.2113 666.132 69.8883 665.861 71.0617C665.726 71.7387 664.914 72.8219 663.244 72.7316C661.8 72.6414 660.582 71.8741 660.085 70.6555V70.6104L660.04 70.5201C659.815 70.1591 659.318 70.0237 658.912 70.2493L654.174 73.0927C653.768 73.3184 653.632 73.8148 653.858 74.221C655.663 77.3803 659.228 79.2308 663.65 79.2308H663.695C666.764 79.2308 669.697 78.0573 671.547 76.1617C672.946 74.7175 673.668 72.867 673.623 70.8812Z" fill="white"/>
<path d="M634.319 52.3767C627.144 52.4218 621.323 58.244 621.323 65.4201V79.1405C621.323 79.1857 621.368 79.2759 621.458 79.2759H629.355C629.4 79.2759 629.49 79.2308 629.49 79.1405V66.729C629.49 63.2989 632.288 60.5006 635.718 60.5006H637.162C637.252 60.5006 637.342 60.4104 637.342 60.3652L638.154 52.7829C638.2 52.5572 638.019 52.3767 637.793 52.3767H634.319Z" fill="white"/>
</svg>
